<?xml version="1.0" ?><!DOCTYPE svg  PUBLIC '-//W3C//DTD SVG 1.1//EN'  'http://www.w3.org/Graphics/SVG/1.1/DTD/svg11.dtd'><svg enable-background="new 0 0 512 512" height="512px" id="Layer_1" version="1.1" viewBox="0 0 512 512" width="512px" xml:space="preserve" xmlns="http://www.w3.org/2000/svg" xmlns:xlink="http://www.w3.org/1999/xlink"><g><rect fill="#8D8E8C" height="45" width="45" x="78" y="407"/><rect fill="#999999" height="3" width="30" x="85" y="404"/><rect fill="#8D8E8C" height="362" width="9" x="96" y="42"/></g><path d="M277,142c0-93.596,91.242-169.333,204-169.333" fill="none" stroke="#FF0000" stroke-miterlimit="10" stroke-width="3"/><path d="M291.334,142c0-51.128,45.322-92.5,101.333-92.5" fill="none" stroke="#1E1E1E" stroke-miterlimit="10" stroke-width="5"/><rect fill="#CDCCCC" height="11" width="376" x="86" y="170"/><g><rect fill="#323232" height="55" width="23" x="452" y="182"/><path d="M462,248c0,2.762,1.422,5,3.727,5h10.851c2.304,0,4.423-2.238,4.423-5v-10c0-2.761-2.119-5-4.423-5h-10.851   c-2.305,0-3.727,2.239-3.727,5V248z" fill="#323232"/><path d="M462,182c0,2.761,1.422,5,3.727,5h10.851c2.304,0,4.423-2.239,4.423-5v-10c0-2.761-2.119-5-4.423-5h-10.851   c-2.305,0-3.727,2.239-3.727,5V182z" fill="#323232"/></g><rect fill="#323232" height="55" width="44" x="73" y="182"/><path d="M86,248c0,2.762-1.422,5-3.727,5H71.423c-2.304,0-4.423-2.238-4.423-5v-10c0-2.761,2.119-5,4.423-5h10.851  c2.305,0,3.727,2.239,3.727,5V248z" fill="#323232"/><path d="M86,182c0,2.761-1.422,5-3.727,5H71.423c-2.304,0-4.423-2.239-4.423-5v-10c0-2.761,2.119-5,4.423-5h10.851  c2.305,0,3.727,2.239,3.727,5V182z" fill="#323232"/><rect fill="#282828" height="60" width="410" x="69" y="452"/><rect fill="#CDCCCC" height="380" width="15" x="69" y="57"/><rect fill="#CDCCCC" height="15" width="380" x="84" y="437"/><rect fill="#323232" height="15" width="15" x="69" y="437"/><rect fill="#323232" height="15" width="15" x="464" y="437"/><rect fill="#CDCCCC" height="380" width="15" x="464" y="57"/><rect fill="#CDCCCC" height="15" width="380" x="84" y="42"/><rect fill="#323232" height="15" width="15" x="69" y="42"/><rect fill="#323232" height="15" width="15" x="464" y="42"/><g><rect fill="#5C5C5C" height="50" width="5" x="84" y="387"/><rect fill="#5C5C5C" height="5" width="50" x="84" y="432"/><rect fill="#5C5C5C" height="58.234" transform="matrix(0.7071 -0.7071 0.7071 0.7071 -261.217 197.1606)" width="6.751" x="104.027" y="384.803"/></g><g><rect fill="#5C5C5C" height="5" width="50" x="414" y="432"/><rect fill="#5C5C5C" height="50" width="5" x="459" y="387"/><rect fill="#5C5C5C" height="58.234" transform="matrix(-0.707 -0.7072 0.7072 -0.707 460.1782 1017.834)" width="6.751" x="437.544" y="384.48"/></g><g><rect fill="#5C5C5C" height="5" width="50" x="84" y="57"/><rect fill="#5C5C5C" height="50" width="5" x="84" y="57"/><rect fill="#5C5C5C" height="58.234" transform="matrix(0.707 0.7072 -0.7072 0.707 88.23 -52.1695)" width="6.751" x="103.704" y="51.286"/></g><g><rect fill="#5C5C5C" height="50" width="5" x="459" y="57"/><rect fill="#5C5C5C" height="5" width="50" x="414" y="57"/><rect fill="#5C5C5C" height="58.234" transform="matrix(-0.7072 0.707 -0.707 -0.7072 808.7977 -174.8064)" width="6.751" x="437.221" y="50.963"/></g><rect fill="#5C5C5C" height="45" width="45" x="24" y="187"/><polygon fill="#323232" points="69,187 23.787,187 69,176.5 "/><polygon fill="#323232" points="69,232 23.787,232 69,242.5 "/><rect fill="#8D8E8C" height="9" width="335" x="117" y="192"/><rect fill="#8D8E8C" height="9" width="335" x="117" y="218"/><rect fill="#CDCCCC" height="46" width="59" x="247" y="187"/><rect fill="#B3B3B3" height="3" width="59" x="247" y="187"/><rect fill="#5C5C5C" height="45" width="45" x="254" y="142"/><rect fill="#323232" height="32" width="16" x="269" y="190"/><polygon fill="#323232" points="283.688,224 270.563,224 269,222 285,222 "/><rect fill="#FFCB00" height="8" width="16" x="269" y="224"/><polygon fill="#FFCB00" points="271.992,232 276.906,234.938 281.82,232 "/><g><rect fill="#CDCCCC" height="1" width="2" x="268" y="196"/><rect fill="#CDCCCC" height="1" width="2" x="268" y="199"/><rect fill="#CDCCCC" height="1" width="2" x="268" y="202"/><rect fill="#CDCCCC" height="1" width="2" x="268" y="205"/><rect fill="#CDCCCC" height="1" width="2" x="268" y="208"/></g><g><rect fill="#CDCCCC" height="1" width="2" x="284" y="196"/><rect fill="#CDCCCC" height="1" width="2" x="284" y="199"/><rect fill="#CDCCCC" height="1" width="2" x="284" y="202"/><rect fill="#CDCCCC" height="1" width="2" x="284" y="205"/><rect fill="#CDCCCC" height="1" width="2" x="284" y="208"/></g><g><rect fill="#1E1E1E" height="1" width="2" x="270" y="196"/><rect fill="#1E1E1E" height="1" width="2" x="270" y="199"/><rect fill="#1E1E1E" height="1" width="2" x="270" y="202"/><rect fill="#1E1E1E" height="1" width="2" x="270" y="205"/><rect fill="#1E1E1E" height="1" width="2" x="270" y="208"/></g><g><rect fill="#1E1E1E" height="1" width="2" x="282" y="196"/><rect fill="#1E1E1E" height="1" width="2" x="282" y="199"/><rect fill="#1E1E1E" height="1" width="2" x="282" y="202"/><rect fill="#1E1E1E" height="1" width="2" x="282" y="205"/><rect fill="#1E1E1E" height="1" width="2" x="282" y="208"/></g><g><rect fill="#1E1E1E" height="1" width="2" x="272" y="196"/><rect fill="#1E1E1E" height="1" width="2" x="272" y="199"/><rect fill="#1E1E1E" height="1" width="2" x="272" y="202"/><rect fill="#1E1E1E" height="1" width="2" x="272" y="205"/><rect fill="#1E1E1E" height="1" width="2" x="272" y="208"/></g><g><rect fill="#1E1E1E" height="1" width="2" x="280" y="196"/><rect fill="#1E1E1E" height="1" width="2" x="280" y="199"/><rect fill="#1E1E1E" height="1" width="2" x="280" y="202"/><rect fill="#1E1E1E" height="1" width="2" x="280" y="205"/><rect fill="#1E1E1E" height="1" width="2" x="280" y="208"/></g><g><rect fill="#1E1E1E" height="1" width="2" x="274" y="196"/><rect fill="#1E1E1E" height="1" width="2" x="274" y="199"/><rect fill="#1E1E1E" height="1" width="2" x="274" y="202"/><rect fill="#1E1E1E" height="1" width="2" x="274" y="205"/><rect fill="#1E1E1E" height="1" width="2" x="274" y="208"/></g><g><rect fill="#1E1E1E" height="1" width="2" x="278" y="196"/><rect fill="#1E1E1E" height="1" width="2" x="278" y="199"/><rect fill="#1E1E1E" height="1" width="2" x="278" y="202"/><rect fill="#1E1E1E" height="1" width="2" x="278" y="205"/><rect fill="#1E1E1E" height="1" width="2" x="278" y="208"/></g><polygon fill="#8D8E8C" points="282.833,142 271,142 273.2,138 280.785,138 "/><rect fill="#1E1E1E" height="8" width="239" x="155" y="393"/><rect fill="#8D8E8C" height="6" width="15" x="196" y="401"/><rect fill="#8D8E8C" height="6" width="15" x="337" y="401"/><rect fill="#5C5C5C" height="53" width="197" x="175" y="407"/><g><rect fill="#1367EB" height="22" width="22" x="89" y="476"/><rect fill="#282828" height="4.447" transform="matrix(0.707 0.7072 -0.7072 0.707 369.1603 61.2216)" width="7.175" x="107.102" y="473.943"/><rect fill="#282828" height="4.447" transform="matrix(0.7071 0.7071 -0.7071 0.7071 378.5371 83.0974)" width="6.01" x="85.964" y="496.223"/></g><g><path d="M125.34,494.749h-0.855l-7.188-10.774h-0.066c0.066,1.284,0.1,2.252,0.1,2.905v7.869h-0.813v-12.136h0.847   l7.18,10.758h0.05c-0.05-0.996-0.075-1.942-0.075-2.839v-7.919h0.822V494.749z" fill="#F2F2F2"/><path d="M134.048,494.749l-0.208-1.428h-0.066c-0.454,0.581-0.92,0.992-1.399,1.232   c-0.479,0.241-1.044,0.361-1.697,0.361c-0.885,0-1.574-0.227-2.067-0.681s-0.739-1.082-0.739-1.884c0-0.881,0.367-1.563,1.1-2.051   c0.733-0.487,1.794-0.744,3.184-0.771l1.718-0.051v-0.598c0-0.857-0.174-1.505-0.523-1.941c-0.349-0.438-0.91-0.656-1.685-0.656   c-0.835,0-1.702,0.232-2.598,0.697l-0.307-0.714c0.991-0.465,1.97-0.697,2.938-0.697c0.991,0,1.731,0.257,2.22,0.772   c0.49,0.514,0.735,1.316,0.735,2.406v6.002H134.048z M130.728,494.168c0.963,0,1.723-0.275,2.278-0.826   c0.557-0.551,0.834-1.315,0.834-2.295v-0.888l-1.577,0.066c-1.267,0.061-2.17,0.258-2.71,0.593   c-0.539,0.335-0.809,0.856-0.809,1.565c0,0.564,0.173,1.003,0.519,1.315C129.608,494.012,130.097,494.168,130.728,494.168z" fill="#F2F2F2"/><path d="M139.551,494.749l-3.486-9.023h0.847l2.333,6.135c0.31,0.786,0.542,1.472,0.697,2.059h0.05   c0.227-0.753,0.459-1.444,0.697-2.075l2.333-6.118h0.847l-3.486,9.023H139.551z" fill="#F2F2F2"/><path d="M145.262,483.22c0-0.531,0.174-0.797,0.523-0.797c0.171,0,0.306,0.068,0.403,0.207   c0.097,0.139,0.145,0.335,0.145,0.59c0,0.248-0.048,0.445-0.145,0.589c-0.097,0.144-0.231,0.216-0.403,0.216   C145.437,484.024,145.262,483.756,145.262,483.22z M146.2,494.749h-0.822v-9.023h0.822V494.749z" fill="#F2F2F2"/><path d="M154.767,494.749l-4.524-11.206h-0.066c0.044,0.687,0.066,1.389,0.066,2.108v9.098h-0.813v-12.136h1.312   l4.3,10.675h0.05l4.3-10.675h1.278v12.136h-0.855v-9.197c0-0.642,0.033-1.306,0.1-1.992h-0.066l-4.541,11.189H154.767z" fill="#F2F2F2"/><path d="M169.368,494.749l-0.208-1.428h-0.066c-0.454,0.581-0.92,0.992-1.399,1.232   c-0.479,0.241-1.044,0.361-1.697,0.361c-0.885,0-1.574-0.227-2.067-0.681s-0.739-1.082-0.739-1.884c0-0.881,0.367-1.563,1.1-2.051   c0.733-0.487,1.794-0.744,3.184-0.771l1.718-0.051v-0.598c0-0.857-0.174-1.505-0.523-1.941c-0.349-0.438-0.91-0.656-1.685-0.656   c-0.835,0-1.702,0.232-2.598,0.697l-0.307-0.714c0.991-0.465,1.97-0.697,2.938-0.697c0.991,0,1.731,0.257,2.22,0.772   c0.49,0.514,0.735,1.316,0.735,2.406v6.002H169.368z M166.047,494.168c0.963,0,1.723-0.275,2.278-0.826   c0.557-0.551,0.834-1.315,0.834-2.295v-0.888l-1.577,0.066c-1.267,0.061-2.17,0.258-2.71,0.593   c-0.539,0.335-0.809,0.856-0.809,1.565c0,0.564,0.173,1.003,0.519,1.315C164.928,494.012,165.417,494.168,166.047,494.168z" fill="#F2F2F2"/><path d="M173.701,490.79l4.607-5.064h0.996l-3.553,3.852l3.86,5.172h-0.988l-3.428-4.557l-1.478,1.344v3.213h-0.822   v-12.916h0.822v6.475l-0.058,2.482H173.701z" fill="#F2F2F2"/><path d="M184.766,494.915c-1.312,0-2.334-0.404-3.067-1.212c-0.733-0.808-1.1-1.939-1.1-3.396   c0-1.438,0.354-2.591,1.063-3.457s1.663-1.299,2.864-1.299c1.063,0,1.901,0.371,2.515,1.112s0.921,1.749,0.921,3.021v0.664h-6.5   c0.011,1.239,0.3,2.186,0.868,2.839c0.567,0.653,1.379,0.979,2.436,0.979c0.515,0,0.967-0.036,1.357-0.108   c0.391-0.071,0.884-0.227,1.482-0.465v0.748c-0.509,0.221-0.979,0.372-1.411,0.452S185.286,494.915,184.766,494.915z    M184.525,486.282c-0.869,0-1.566,0.286-2.092,0.859c-0.526,0.572-0.833,1.398-0.921,2.478h5.578c0-1.046-0.227-1.863-0.681-2.453   C185.956,486.577,185.327,486.282,184.525,486.282z" fill="#F2F2F2"/><path d="M194.004,485.552c0.382,0,0.792,0.039,1.229,0.116l-0.158,0.788c-0.376-0.094-0.767-0.141-1.17-0.141   c-0.769,0-1.4,0.326-1.893,0.979s-0.739,1.478-0.739,2.474v4.98h-0.822v-9.023h0.697l0.083,1.627h0.058   c0.371-0.664,0.767-1.13,1.187-1.398S193.407,485.552,194.004,485.552z" fill="#F2F2F2"/></g></svg>